<svg width="1057" height="833" viewBox="0 0 1057 833" fill="none" xmlns="http://www.w3.org/2000/svg">
<path d="M394 204.653L378.5 181.653L367 167.153L354 154.153M342.5 144.153L319.5 132.153C304.833 124.82 267.5 114.553 235.5 132.153C203.5 149.753 178.167 178.153 169.5 190.153L140.5 231.653L111.5 279.653L84.5 327.153L72.5 347.153L58.5 377.653L47 406.153L29.5 458.153L19.5 507.153L10.5 562.153C7.66667 580.32 2 619.553 2 631.153C2 642.753 2 671.653 2 684.653C15.5 757.653 65 884.353 155 807.153C245 729.953 279.833 678.986 286 663.153L307.5 615.153L319.5 579.153L335 526.153L342.5 491.153V458.153V423.653C328.167 386.32 280.7 324.853 205.5 377.653C130.3 430.453 100.167 464.987 94.5 475.653L72.5 515.653C67.8333 525.486 58.5 548.553 58.5 562.153C58.5 579.153 -7.5 686.653 120.5 663.153C167.7 637.553 205.5 605.153 218.5 592.153L235.5 562.153L252.25 534.653M269 507.153L252.25 534.653M252.25 534.653V562.153C254.833 573.486 267.5 592.753 297.5 579.153C327.5 565.553 347.667 551.486 354 546.153L378.5 534.653L394 526.153L429 515.653L479.5 507.153L524 491.153L555.5 475.653L593 446.653L629 423.653L656.5 406.153L681 377.653L694 358.653L708.5 327.153L724.5 296.653L736 262.153L746 231.653V204.653V181.653L724.5 220.153L717 250.653L708.5 279.653L681 406.153L675.5 452.653L665.5 507.153L656.5 562.153L642 631.153L629 663.153V601.153C629 592.986 629 570.553 629 546.153C629 521.753 637.667 488.987 642 475.653C647.333 460.653 657.7 429.253 656.5 423.653C655.3 418.053 668.667 377.987 675.5 358.653L694 311.153L775 132.153L819.5 70.6532C891 13.3198 1010.4 -61.5468 916 97.6532C821.6 256.853 775 323.653 763.5 337.153L746 377.653L717 406.153L681 452.653L651 500.153L613.5 546.153C608.333 559.986 601.1 585.953 613.5 579.153C625.9 572.353 672.333 554.32 694 546.153L763.5 507.153L854 458.153C862.167 455.32 886 447.053 916 436.653C946 426.253 993.833 411.987 1014 406.153L1056 390.653" stroke="black" stroke-width="3"/>
</svg>
