<?xml version="1.0" standalone="no"?>
<!DOCTYPE svg PUBLIC "-//W3C//DTD SVG 20010904//EN"
 "http://www.w3.org/TR/2001/REC-SVG-20010904/DTD/svg10.dtd">
<svg version="1.0" xmlns="http://www.w3.org/2000/svg"
 width="300.000000pt" height="667.000000pt" viewBox="0 0 300.000000 667.000000"
 preserveAspectRatio="xMidYMid meet">
<metadata>
Created by potrace 1.10, written by Peter Selinger 2001-2011
</metadata>
<g transform="translate(0.000000,667.000000) scale(0.100000,-0.100000)"
fill="#000000" stroke="none">
<path d="M1904 4814 c-21 -10 -35 -27 -44 -54 -11 -34 -16 -39 -37 -34 -16 5
-23 2 -23 -9 0 -8 -5 -17 -12 -19 -8 -3 -11 -19 -10 -42 2 -31 0 -37 -13 -33
-18 7 -17 12 -20 -86 -2 -43 -8 -84 -14 -90 -21 -26 -72 -206 -85 -302 -8 -55
-23 -126 -34 -157 -17 -47 -20 -82 -20 -205 0 -175 13 -251 56 -313 47 -68
161 -167 176 -153 4 5 12 -1 18 -11 8 -15 12 -16 19 -5 6 10 11 11 17 3 18
-27 130 -44 197 -31 26 5 103 27 158 44 13 4 17 -1 17 -21 0 -39 -31 -93 -91
-159 -44 -50 -70 -67 -174 -117 -117 -57 -182 -81 -310 -115 -33 -9 -80 -22
-105 -30 -25 -8 -69 -17 -98 -21 -46 -6 -56 -4 -76 15 -33 31 -63 153 -45 181
6 11 9 4 9 -24 0 -67 20 -116 59 -142 50 -34 60 -30 25 9 -17 17 -41 52 -54
77 -22 41 -24 56 -22 182 1 102 5 145 17 167 8 17 19 47 23 67 9 46 56 74 123
74 31 0 49 5 52 14 5 11 -8 14 -64 13 -38 -1 -69 -4 -69 -9 0 -16 -51 -32
-225 -67 -157 -33 -189 -42 -227 -70 -25 -18 -50 -42 -56 -54 -39 -84 -42 -99
-48 -258 -4 -90 -11 -170 -17 -177 -15 -19 -10 -91 8 -119 9 -13 24 -23 35
-23 29 0 32 -15 10 -52 -29 -50 -45 -108 -95 -353 -25 -121 -54 -251 -65 -290
-44 -150 -46 -185 -11 -185 9 0 25 7 35 15 19 14 19 15 -7 15 -31 0 -33 10
-16 74 6 22 15 59 21 81 5 22 15 51 21 65 6 14 11 39 12 55 3 44 76 399 83
405 4 3 7 10 7 15 1 23 29 91 41 98 7 4 11 13 8 20 -4 10 8 12 51 7 42 -5 55
-3 55 7 0 8 -14 13 -40 13 -39 0 -113 31 -127 53 -12 19 -15 79 -3 72 5 -3 10
2 10 12 0 10 11 64 25 119 l25 102 -20 43 c-11 24 -20 55 -20 67 0 27 26 88
48 115 8 9 11 17 6 17 -5 0 3 8 16 17 14 10 26 15 26 13 1 -3 10 2 20 11 17
14 69 29 154 44 29 5 147 33 173 41 16 5 17 3 8 -14 -6 -12 -11 -31 -11 -43 0
-22 0 -22 15 -3 20 26 19 10 -2 -29 -9 -18 -18 -43 -19 -57 -1 -14 -5 -43 -9
-65 -13 -77 -21 -196 -13 -208 4 -7 8 -25 8 -42 0 -16 12 -53 27 -82 21 -42
30 -52 45 -47 10 3 23 2 30 -2 18 -11 90 -5 113 10 11 7 42 16 69 19 27 4 55
12 62 18 8 6 22 9 33 6 10 -2 25 -1 32 4 7 4 16 4 19 0 3 -4 21 -2 40 5 l35
14 -35 -5 -35 -5 30 15 c17 8 36 14 44 15 7 0 28 8 45 19 40 24 76 35 76 23 0
-5 -21 -17 -46 -27 -25 -9 -43 -19 -41 -21 2 -3 25 4 51 15 34 15 46 26 46 41
0 13 5 20 13 17 6 -2 11 -9 10 -15 -2 -6 4 -9 13 -5 11 4 12 8 4 13 -9 6 -9 9
0 15 7 4 16 2 20 -5 6 -10 26 -2 78 34 81 54 154 129 179 180 9 20 20 36 24
36 13 0 42 -34 32 -37 -7 -3 -6 -18 1 -43 9 -35 8 -42 -9 -55 -16 -11 -17 -14
-5 -15 30 0 9 -80 -20 -80 -5 0 -30 -10 -57 -22 -26 -12 -53 -22 -60 -23 -6 0
-15 -4 -20 -9 -5 -5 -2 -6 6 -1 9 5 12 4 7 -3 -4 -7 -13 -12 -20 -12 -6 0 -30
-18 -51 -40 -39 -40 -37 -57 1 -21 48 44 222 145 234 134 3 -2 -6 -13 -20 -24
l-25 -20 25 7 25 6 -22 -24 c-27 -29 -29 -40 -6 -31 13 5 15 2 11 -15 -4 -13
-1 -22 5 -22 7 0 6 -4 -2 -9 -12 -8 -12 -12 -3 -24 10 -12 9 -18 -3 -31 -15
-15 -12 -20 8 -17 4 0 7 -12 7 -29 0 -16 -3 -30 -7 -30 -5 0 -9 -23 -11 -51
-2 -33 1 -48 8 -44 5 3 10 2 10 -4 0 -5 -4 -12 -10 -16 -5 -3 -7 -11 -5 -18 3
-7 -9 -27 -25 -44 -37 -39 -28 -44 12 -7 l27 27 -5 -124 c-2 -68 -3 -131 -2
-139 6 -51 -4 -311 -13 -339 -7 -19 -11 -56 -10 -83 0 -39 -3 -48 -17 -50 -45
-4 -72 -3 -72 2 -5 62 -5 218 0 257 4 33 3 53 -3 53 -6 0 -7 3 -4 6 3 4 -4 14
-16 24 -25 19 -83 41 -90 33 -7 -6 -105 22 -140 40 -15 8 -25 16 -22 18 2 3
-23 4 -55 3 l-59 -1 -21 49 c-20 46 -20 51 -6 73 24 36 20 53 -21 91 -29 27
-44 35 -65 32 -15 -3 -29 -1 -30 3 -2 5 -8 -3 -14 -16 -10 -21 -8 -30 18 -65
l30 -41 -21 -49 c-12 -27 -21 -58 -21 -69 0 -22 -24 -29 -35 -11 -3 6 -16 7
-29 4 -16 -4 -33 3 -56 23 -54 45 -101 96 -116 125 -13 25 -12 30 6 48 11 11
28 20 39 20 31 0 46 26 31 55 -7 13 -17 22 -22 19 -15 -10 -46 6 -51 26 -7 28
-25 25 -20 -4 5 -23 39 -46 68 -46 8 0 15 -7 15 -16 0 -12 -8 -15 -34 -12 -24
3 -32 0 -29 -9 3 -7 0 -13 -6 -13 -6 0 -11 9 -11 20 0 11 5 20 11 20 5 0 7 5
3 11 -11 19 -24 -12 -25 -61 0 -25 -3 -39 -6 -32 -2 6 -9 12 -15 12 -6 0 -8
-6 -5 -14 3 -8 1 -17 -6 -19 -9 -3 -8 -11 3 -32 22 -42 87 -111 96 -103 4 4
-5 18 -21 30 -38 29 -70 108 -45 108 6 0 10 -8 10 -18 0 -10 30 -48 68 -84 71
-69 112 -97 112 -78 0 22 34 5 40 -19 10 -44 26 -33 45 31 10 35 27 80 37 100
17 35 16 68 -3 68 -5 0 -9 6 -9 14 0 8 -7 16 -15 20 -8 3 -15 12 -15 21 0 37
96 -1 107 -43 3 -14 -1 -30 -12 -42 -15 -16 -15 -24 -5 -57 7 -21 22 -51 33
-66 16 -24 25 -28 48 -23 17 3 57 -6 108 -24 45 -17 100 -30 122 -30 52 0 97
-24 104 -55 3 -14 7 -36 10 -50 3 -15 1 -25 -6 -25 -8 0 -9 -27 -4 -93 6 -77
4 -100 -9 -125 -9 -18 -21 -32 -27 -32 -5 0 -3 10 5 22 9 12 16 36 15 53 l-1
30 -8 -32 c-15 -64 -56 -89 -120 -74 -27 6 -40 5 -40 -2 0 -5 -9 -2 -19 7 -11
10 -24 16 -28 13 -14 -9 -88 37 -88 53 0 16 -14 30 -29 30 -5 0 -3 -7 4 -15
10 -12 10 -15 -2 -15 -8 0 -18 4 -23 9 -6 6 -25 13 -44 16 -19 3 -39 9 -44 12
-6 3 -36 7 -68 7 -31 1 -61 4 -65 9 -4 4 -19 7 -33 7 -31 0 -134 32 -176 54
-16 9 -38 16 -47 16 -10 0 -18 6 -18 13 0 9 -2 9 -8 -1 -9 -13 -72 -6 -72 9 0
4 -8 8 -17 8 -38 -1 -58 9 -55 25 2 9 -2 16 -7 16 -5 0 -11 -10 -13 -21 -3
-21 -3 -21 -25 -3 -12 11 -24 30 -28 42 -6 21 -5 23 13 13 36 -19 38 -12 4 10
-24 16 -34 31 -38 60 -8 48 -21 50 -30 5 -3 -19 -17 -49 -30 -67 -24 -33 -27
-43 -43 -160 -1 -7 -52 -31 -57 -26 -2 2 17 52 42 113 81 194 91 231 86 309
-4 66 -2 72 23 95 22 20 36 25 81 24 68 0 173 -47 171 -75 -2 -24 1 -24 -58 6
-28 13 -69 27 -93 30 -37 5 -48 2 -74 -20 -35 -29 -43 -69 -16 -79 22 -8 26
-8 19 4 -8 13 8 13 22 -1 8 -8 13 -8 17 0 4 6 1 11 -7 11 -8 0 -22 10 -33 21
-19 22 -19 22 1 12 24 -13 51 7 34 24 -12 12 12 25 28 15 13 -9 33 -47 33 -64
-1 -7 -9 3 -20 22 -26 47 -25 30 0 -20 11 -22 25 -40 30 -40 6 0 10 -8 11 -17
0 -15 2 -15 9 2 5 11 7 40 5 65 -4 35 -2 39 4 20 5 -14 9 -19 10 -12 1 6 5 12
10 12 6 0 6 -12 0 -32 -5 -18 -6 -41 -3 -52 4 -12 2 -16 -5 -12 -6 4 -11 1
-11 -8 0 -27 27 -6 66 50 39 56 50 84 33 84 -6 0 -7 5 -4 10 4 6 11 7 17 4 7
-4 8 -2 4 5 -5 7 4 30 19 53 18 28 23 43 16 48 -7 4 -9 15 -5 25 7 18 8 18 15
-1 7 -16 8 -15 8 7 1 14 -17 69 -38 122 -22 52 -42 111 -46 129 -4 18 -11 40
-16 48 -15 24 1 -81 17 -118 9 -18 16 -41 17 -52 1 -11 7 -22 13 -24 21 -8 36
-77 20 -95 -7 -9 -11 -21 -9 -28 5 -13 -36 -103 -47 -103 -5 0 -11 6 -13 13
-4 9 -6 9 -6 0 -1 -9 -12 -6 -37 7 -34 20 -61 28 -96 29 -11 1 -18 9 -18 22 0
12 -4 17 -11 14 -6 -4 -8 -10 -5 -13 10 -10 -15 -31 -30 -25 -8 3 -24 -5 -35
-18 l-21 -24 3 47 c2 25 2 45 0 43 -2 -2 -10 2 -18 10 -17 17 -43 20 -43 5 0
-5 9 -10 20 -10 19 0 20 -7 21 -102 0 -57 2 -112 4 -123 4 -18 -22 -110 -45
-160 -32 -71 -50 -116 -50 -127 0 -10 -3 -9 -11 2 -9 13 -10 12 -5 -3 3 -9 1
-30 -5 -45 -6 -15 -15 -54 -20 -87 -5 -33 -10 -70 -12 -82 l-4 -23 541 -2
c297 -1 624 -1 726 -1 l185 1 8 89 c5 48 11 365 13 704 l5 615 -66 42 c-36 23
-65 47 -65 52 0 5 10 16 23 25 13 8 42 38 65 66 l42 52 0 209 c0 141 -3 207
-10 203 -6 -4 -27 3 -46 14 -62 37 -57 16 7 -24 l39 -25 -6 -162 c-4 -90 -6
-174 -5 -186 0 -13 -8 -35 -19 -49 -11 -14 -20 -20 -20 -14 0 15 -28 -11 -32
-30 -5 -20 -31 -49 -45 -49 -7 0 -13 -6 -13 -14 0 -16 -27 -29 -41 -20 -5 3
-9 0 -9 -7 0 -31 -20 9 -22 45 -2 22 -9 41 -16 44 -13 4 -12 -31 1 -44 13 -13
7 -26 -8 -20 -13 5 -14 2 -4 -15 8 -15 8 -19 0 -15 -6 4 -11 2 -11 -4 0 -6 -5
-8 -11 -4 -8 4 -7 9 2 15 10 6 8 9 -8 9 -13 0 -23 -6 -23 -12 0 -9 -4 -8 -10
2 -8 13 -10 12 -10 -4 0 -11 -3 -16 -7 -13 -3 4 -12 -1 -20 -11 -14 -16 -14
-16 -9 2 6 17 5 17 -10 5 -16 -13 -17 -11 -11 13 4 16 3 30 -5 34 -7 4 -8 3
-4 -4 4 -7 3 -12 -3 -12 -5 0 -11 6 -13 12 -3 9 -9 8 -21 -4 -21 -21 -21 -28
-2 -28 8 0 15 -4 15 -10 0 -5 -9 -10 -20 -10 -11 0 -20 4 -20 10 0 5 -8 6 -17
3 -17 -7 -17 -6 0 11 21 22 23 48 2 40 -10 -4 -15 0 -16 12 0 15 -2 15 -6 4
-8 -21 -43 -53 -43 -40 0 7 -8 9 -20 5 -20 -6 -28 9 -10 20 6 3 10 11 10 16 0
5 -11 2 -25 -7 -25 -16 -29 -14 -26 19 1 9 -3 17 -8 17 -6 0 -11 -4 -11 -10 0
-5 -4 -10 -10 -10 -5 0 -10 7 -10 16 0 8 -4 12 -10 9 -20 -12 -9 35 13 56 15
15 18 23 9 26 -6 3 -9 10 -6 15 4 7 2 8 -5 4 -6 -4 -9 -12 -6 -17 4 -5 1 -9
-4 -9 -6 0 -11 -6 -11 -12 0 -7 -4 -19 -9 -27 -8 -12 -12 -12 -25 -2 -9 7 -13
18 -10 23 4 6 10 5 15 -3 7 -11 9 -11 9 2 0 10 -11 19 -29 22 -26 6 -30 12
-39 59 -21 106 -22 119 -12 113 6 -3 10 1 10 9 0 9 -4 16 -9 16 -16 0 -3 263
15 317 25 75 123 273 135 273 6 0 8 9 4 20 -4 12 -2 20 5 20 6 0 8 11 6 26 -4
18 2 34 20 52 14 15 36 43 49 62 33 51 65 78 135 111 38 18 203 23 272 9 46
-10 62 -19 70 -36 6 -13 16 -21 21 -17 6 4 8 0 4 -10 -3 -10 -2 -17 2 -17 5 0
9 -74 8 -165 0 -90 2 -168 6 -171 4 -4 6 143 5 327 l-3 334 -220 2 c-182 2
-225 0 -251 -13z m80 -33 c-10 -17 -21 -28 -25 -25 -10 6 -33 -35 -25 -44 3
-3 6 0 6 6 0 7 6 12 13 12 14 0 47 35 47 50 0 6 12 15 26 20 32 13 37 12 29 0
-3 -5 1 -10 10 -10 9 0 13 5 10 10 -3 6 -2 10 4 10 20 0 22 -22 2 -27 -12 -3
-21 -9 -21 -14 0 -5 -5 -9 -11 -9 -5 0 -27 -11 -47 -25 -20 -14 -33 -25 -28
-25 5 0 2 -8 -5 -17 -12 -16 -12 -17 1 -7 169 125 190 138 190 115 0 -5 -7
-11 -15 -15 -8 -3 -14 -11 -13 -18 2 -7 -3 -12 -9 -10 -7 1 -13 -3 -13 -9 0
-5 -4 -8 -9 -4 -5 3 -12 1 -16 -4 -3 -6 4 -8 17 -6 22 4 48 29 68 64 5 9 12
13 16 9 4 -4 -1 -19 -10 -32 -12 -19 -13 -24 -2 -20 7 3 19 15 25 28 12 22 35
27 59 12 6 -4 12 -3 12 2 0 8 22 9 68 4 9 -1 11 -9 7 -22 -3 -11 -2 -20 4 -20
6 0 9 -23 8 -55 -1 -30 -6 -55 -12 -55 -5 0 -5 -4 2 -8 6 -4 9 -19 6 -34 -4
-23 -8 -26 -23 -18 -9 5 -20 7 -22 5 -3 -3 -20 1 -39 9 -23 9 -69 13 -140 12
-99 -1 -109 -3 -173 -36 -69 -35 -116 -81 -116 -116 0 -15 -2 -16 -9 -5 -7 11
-10 9 -15 -7 -4 -11 -20 -35 -36 -54 -34 -38 -38 -50 -12 -41 16 6 16 5 0 -14
-10 -11 -18 -24 -18 -30 0 -6 -7 -16 -15 -23 -8 -7 -19 -29 -25 -50 -6 -21
-17 -43 -25 -50 -19 -16 -19 -1 0 27 8 12 12 28 9 37 -3 9 -2 16 3 16 9 0 43
52 43 67 0 4 -9 -3 -20 -17 l-20 -25 16 50 c9 28 24 56 32 63 13 10 13 12 1
12 -10 0 -8 5 6 18 11 9 31 30 45 45 l25 28 -28 -5 c-29 -5 -32 0 -17 24 5 8
5 17 1 20 -5 3 -11 15 -15 27 -6 18 -4 20 13 16 16 -4 19 -1 16 15 -2 15 1 19
11 15 13 -5 18 7 15 35 -1 6 3 12 10 12 6 0 20 9 30 21 10 11 22 18 28 15 5
-4 13 3 16 15 9 29 64 89 82 89 12 0 11 -5 -3 -29z m-71 -16 c-10 -13 -22 -25
-26 -25 -5 0 -5 -4 -2 -10 3 -5 1 -10 -4 -10 -17 0 -13 15 10 44 26 33 46 35
22 1z m-83 -75 c0 -5 -4 -10 -10 -10 -5 0 -10 5 -10 10 0 6 5 10 10 10 6 0 10
-4 10 -10z m-26 -26 c10 -25 -1 -29 -14 -5 -6 12 -7 21 -1 21 5 0 12 -7 15
-16z m-24 -189 c-7 -9 -15 -13 -19 -10 -3 3 1 10 9 15 21 14 24 12 10 -5z
m-104 -341 c-4 -9 -9 -15 -11 -12 -3 3 -3 13 1 22 4 9 9 15 11 12 3 -3 3 -13
-1 -22z m624 -871 c0 -34 -86 -143 -112 -143 -14 0 -8 19 11 32 10 7 26 28 35
46 10 19 21 30 28 26 7 -4 8 -3 4 4 -11 18 4 61 20 55 8 -3 14 -12 14 -20z
m-110 -153 c8 -5 10 -10 4 -10 -6 0 -23 -11 -38 -25 -15 -14 -32 -25 -38 -25
-6 0 -9 2 -7 5 2 2 15 18 29 34 29 34 30 34 50 21z m-1243 -62 c-3 -8 -6 -5
-6 6 -1 11 2 17 5 13 3 -3 4 -12 1 -19z m1153 -5 c0 -5 -12 -16 -25 -26 -19
-14 -25 -15 -25 -4 0 8 10 19 23 25 28 14 27 13 27 5z m-1173 -25 c-3 -8 -6
-5 -6 6 -1 11 2 17 5 13 3 -3 4 -12 1 -19z m218 -578 c3 -5 1 -10 -4 -10 -6 0
-11 5 -11 10 0 6 2 10 4 10 3 0 8 -4 11 -10z m97 -23 c2 -13 0 -28 -6 -33 -8
-8 -12 0 -12 28 -1 40 11 44 18 5z m78 -2 c0 -12 -32 -67 -36 -63 -7 7 17 68
27 68 5 0 9 -2 9 -5z m-205 -15 c3 -5 1 -10 -4 -10 -6 0 -11 5 -11 10 0 6 2
10 4 10 3 0 8 -4 11 -10z m-15 -251 c0 -5 9 -28 19 -52 10 -23 23 -62 29 -87
9 -40 10 -42 11 -13 0 17 -3 43 -9 57 -10 28 -10 29 14 20 9 -3 12 -12 9 -22
-5 -14 -2 -13 17 3 18 15 22 16 18 4 -5 -13 2 -15 38 -13 24 2 44 -1 44 -6 0
-5 -7 -7 -16 -3 -14 5 -14 3 1 -27 21 -40 6 -63 -23 -37 -21 20 -32 22 -32 6
0 -5 5 -7 10 -4 6 3 10 2 10 -3 0 -16 31 -23 46 -11 11 9 14 7 14 -10 0 -11
-4 -21 -10 -21 -5 0 -7 -7 -4 -15 9 -24 19 -18 21 13 1 16 3 33 4 38 5 29 -2
55 -13 48 -9 -5 -9 -3 1 9 7 9 16 15 20 14 78 -36 97 -57 68 -74 -21 -12 -27
-51 -11 -64 18 -14 32 -3 17 12 -14 14 3 57 24 61 11 2 10 8 -7 26 -27 29 -14
28 56 -3 43 -19 55 -28 46 -37 -8 -8 -15 -8 -27 2 -18 15 -20 5 -3 -14 10 -10
17 -10 39 3 24 13 34 14 74 3 26 -7 51 -9 57 -6 7 4 8 2 4 -4 -4 -7 2 -22 13
-34 12 -12 21 -31 21 -42 0 -20 0 -20 -15 0 -11 14 -14 15 -15 4 0 -13 -1 -13
-10 0 -5 8 -10 11 -10 5 0 -5 -11 4 -25 20 l-25 30 -24 -27 c-14 -16 -30 -28
-36 -28 -5 0 -10 -5 -10 -11 0 -6 -7 -4 -15 5 -8 8 -15 20 -15 26 0 6 -7 13
-15 16 -8 4 -12 10 -9 15 3 5 -2 6 -12 2 -14 -5 -13 -8 7 -24 20 -16 22 -20 9
-29 -19 -12 -42 -13 -74 0 -17 6 -27 6 -32 -1 -4 -8 -9 -7 -15 2 -5 8 -9 10
-9 4 0 -5 -11 -11 -25 -11 -22 -2 -24 0 -13 13 11 14 10 15 -10 9 -15 -5 -22
-3 -22 5 0 7 -3 9 -6 6 -4 -4 -1 -13 6 -22 10 -12 10 -15 -4 -15 -10 0 -29 29
-53 80 -37 80 -58 105 -29 35 9 -21 16 -48 16 -62 0 -14 4 -21 10 -18 6 3 10
4 10 1 0 -2 3 -11 6 -19 4 -12 -5 -14 -50 -12 -59 4 -80 11 -71 26 4 5 1 9 -4
9 -6 0 -11 -6 -11 -14 0 -7 -6 -18 -13 -24 -10 -8 -17 -2 -30 29 -20 46 -29
51 -21 10 7 -35 -12 -50 -31 -25 -9 11 -14 14 -15 7 0 -7 -8 -13 -18 -13 -13
0 -18 9 -20 31 -2 21 1 28 9 23 8 -4 9 -3 5 4 -12 19 3 35 20 21 11 -9 16 -6
23 14 5 14 15 27 22 29 14 5 18 24 20 85 1 24 5 40 10 37 5 -3 9 2 9 10 0 9 5
16 10 16 6 0 10 7 10 16 0 8 5 12 10 9 6 -3 10 -10 10 -16z m590 -209 c0 -5 6
-9 13 -7 7 1 11 -6 9 -18 -2 -17 -1 -18 7 -4 7 11 19 15 37 11 17 -3 25 -1 20
6 -3 5 16 3 43 -6 27 -10 45 -19 41 -22 -5 -3 5 -12 23 -20 l32 -15 -29 -3
c-16 -2 -32 2 -36 8 -4 7 -13 9 -19 6 -6 -4 -20 3 -31 16 -21 25 -26 18 -10
-13 11 -20 -3 -28 -15 -9 -4 6 -12 7 -18 3 -17 -10 -47 -11 -47 -1 0 4 7 8 15
8 8 0 15 4 15 10 0 5 -7 7 -16 3 -9 -3 -23 3 -35 15 -21 23 -25 42 -9 42 6 0
10 -4 10 -10z m-77 -60 c5 -21 -7 -25 -37 -14 -13 5 -14 9 -5 20 16 20 36 17
42 -6z m-836 -36 c-3 -3 -12 -4 -19 -1 -8 3 -5 6 6 6 11 1 17 -2 13 -5z"/>
<path d="M2024 4698 c-15 -18 -15 -20 -2 -9 10 7 25 10 34 7 10 -4 14 -1 12 6
-7 21 -24 19 -44 -4z"/>
<path d="M2130 4700 c-9 -6 -10 -10 -3 -10 6 0 15 5 18 10 8 12 4 12 -15 0z"/>
<path d="M2185 4670 c-3 -6 1 -7 9 -4 18 7 21 14 7 14 -6 0 -13 -4 -16 -10z"/>
<path d="M2135 4650 c-3 -5 -2 -10 4 -10 5 0 13 5 16 10 3 6 2 10 -4 10 -5 0
-13 -4 -16 -10z"/>
<path d="M1790 4440 c-6 -11 -8 -20 -6 -20 3 0 10 9 16 20 6 11 8 20 6 20 -3
0 -10 -9 -16 -20z"/>
<path d="M1220 2020 c0 -5 5 -10 10 -10 6 0 10 5 10 10 0 6 -4 10 -10 10 -5 0
-10 -4 -10 -10z"/>
<path d="M1147 1954 c-3 -4 -2 -14 3 -24 5 -10 6 -20 3 -24 -3 -3 -1 -6 5 -6
14 0 16 29 4 48 -5 7 -11 9 -15 6z"/>
<path d="M1540 1929 c0 -5 5 -7 10 -4 6 3 10 8 10 11 0 2 -4 4 -10 4 -5 0 -10
-5 -10 -11z"/>
<path d="M1051 1904 c0 -11 3 -14 6 -6 3 7 2 16 -1 19 -3 4 -6 -2 -5 -13z"/>
<path d="M1635 1890 c-3 -6 1 -7 9 -4 18 7 21 14 7 14 -6 0 -13 -4 -16 -10z"/>
<path d="M1438 1883 c7 -3 16 -2 19 1 4 3 -2 6 -13 5 -11 0 -14 -3 -6 -6z"/>
<path d="M863 4285 c0 -8 4 -12 9 -9 5 3 6 10 3 15 -9 13 -12 11 -12 -6z"/>
<path d="M1858 4264 c-36 -19 -36 -33 -1 -26 30 6 56 26 46 36 -9 8 -14 7 -45
-10z"/>
<path d="M1916 4251 c-4 -6 4 -15 16 -22 21 -12 33 -14 83 -21 11 -2 23 -6 26
-11 10 -13 71 -17 66 -4 -10 31 -177 82 -191 58z"/>
<path d="M1841 4150 c-36 -16 -20 -21 33 -11 61 11 123 -3 158 -36 15 -15 30
-24 33 -22 2 3 -11 20 -29 38 -31 30 -42 34 -103 37 -37 2 -79 -1 -92 -6z"/>
<path d="M2325 4140 c-3 -5 -1 -10 4 -10 6 0 11 5 11 10 0 6 -2 10 -4 10 -3 0
-8 -4 -11 -10z"/>
<path d="M2120 4127 c-14 -8 -31 -12 -37 -10 -7 3 -9 -4 -6 -16 6 -24 18 -27
26 -7 3 8 19 17 36 21 17 4 29 11 25 16 -7 12 -14 11 -44 -4z"/>
<path d="M2353 4128 c-12 -21 -13 -42 -1 -50 7 -3 13 -18 15 -32 4 -25 2 -26
-44 -21 -48 5 -36 -2 30 -19 l27 -6 0 70 c0 66 -9 86 -27 58z"/>
<path d="M2247 4109 c4 -13 8 -18 11 -10 2 7 -1 18 -6 23 -8 8 -9 4 -5 -13z"/>
<path d="M1813 4109 c-40 -12 -44 -23 -6 -16 15 3 37 0 47 -5 15 -8 21 -8 24
1 6 18 29 13 35 -9 4 -14 14 -20 35 -20 17 0 36 -2 44 -3 7 -2 10 -2 6 0 -11
6 -10 33 1 33 13 0 32 -26 24 -33 -3 -4 2 -7 11 -7 24 0 16 19 -18 44 -31 24
-148 32 -203 15z m164 -15 c-3 -3 -12 -4 -19 -1 -8 3 -5 6 6 6 11 1 17 -2 13
-5z"/>
<path d="M2306 4112 c-3 -6 -1 -14 5 -17 15 -10 25 3 12 16 -7 7 -13 7 -17 1z"/>
<path d="M2228 4095 c-9 -10 12 -66 23 -59 5 3 9 10 9 15 0 6 -4 8 -9 4 -5 -3
-11 6 -13 21 -2 14 -6 23 -10 19z"/>
<path d="M1579 4088 c-4 -13 -10 -51 -14 -88 l-6 -45 26 59 c14 33 25 63 25
68 0 7 -29 12 -31 6z"/>
<path d="M1875 4049 c-11 -17 1 -22 63 -26 43 -3 53 -1 40 7 -9 5 -35 11 -57
12 -22 1 -38 5 -35 10 3 4 3 8 0 8 -3 0 -8 -5 -11 -11z"/>
<path d="M2242 3993 c-8 -3 -5 -11 12 -24 13 -10 28 -19 32 -19 4 0 -1 7 -12
15 -18 14 -17 14 14 15 29 0 32 -2 27 -23 -5 -18 -1 -26 20 -35 39 -18 45 -15
45 21 0 31 -4 35 -39 45 -40 12 -77 14 -99 5z"/>
<path d="M2180 3895 c0 -8 4 -15 10 -15 5 0 7 7 4 15 -4 8 -8 15 -10 15 -2 0
-4 -7 -4 -15z"/>
<path d="M1561 3874 c0 -11 3 -14 6 -6 3 7 2 16 -1 19 -3 4 -6 -2 -5 -13z"/>
<path d="M2180 3855 c0 -8 2 -15 4 -15 2 0 6 7 10 15 3 8 1 15 -4 15 -6 0 -10
-7 -10 -15z"/>
<path d="M1972 3807 c-17 -10 -20 -15 -10 -25 17 -17 29 -15 21 4 -5 15 14 14
66 -2 9 -3 11 1 7 12 -3 8 -6 18 -6 20 0 9 -56 2 -78 -9z"/>
<path d="M2148 3813 c7 -3 16 -2 19 1 4 3 -2 6 -13 5 -11 0 -14 -3 -6 -6z"/>
<path d="M2116 3781 c-4 -5 6 -19 21 -30 16 -11 22 -21 16 -21 -18 0 -16 -20
2 -20 21 0 19 43 -3 63 -21 19 -28 21 -36 8z"/>
<path d="M2042 3751 c14 -23 18 -24 42 -15 19 7 21 21 4 21 -7 0 -23 3 -36 7
-22 7 -22 6 -10 -13z"/>
<path d="M1990 3720 c0 -5 6 -10 13 -10 7 -1 5 -6 -6 -14 -17 -13 -17 -14 0
-20 25 -10 47 21 28 40 -16 16 -35 18 -35 4z"/>
<path d="M1935 3690 c-10 -11 -15 -23 -12 -27 4 -3 7 -1 7 6 0 7 5 9 10 6 6
-3 13 1 16 10 10 25 -1 27 -21 5z"/>
<path d="M1828 3683 c-16 -4 -20 -12 -34 -65 -3 -15 -2 -19 4 -10 5 7 39 15
80 18 62 5 81 2 139 -22 38 -14 85 -40 105 -56 21 -16 42 -27 48 -23 5 3 10 1
10 -4 0 -6 -6 -11 -14 -11 -9 0 -12 -7 -9 -20 7 -26 18 -25 37 2 17 24 22 83
7 73 -6 -3 -14 3 -20 12 -9 15 -12 16 -20 3 -5 -8 -7 -18 -5 -22 10 -16 -8 -7
-44 21 -20 16 -55 32 -76 36 -26 4 -35 9 -26 15 10 6 8 10 -8 19 -25 13 -35
14 -28 2 8 -13 -88 0 -96 13 -5 8 -8 7 -8 -1 0 -7 -6 -13 -14 -13 -8 0 -17 -6
-19 -12 -4 -9 -6 -9 -6 1 -1 8 6 23 16 33 16 18 13 20 -19 11z"/>
<path d="M2060 3678 c0 -16 67 -71 73 -60 3 4 2 22 0 41 -4 23 -8 29 -14 20
-7 -11 -12 -12 -29 -1 -11 6 -22 12 -25 12 -3 0 -5 -6 -5 -12z"/>
<path d="M2048 3623 c6 -2 18 -2 25 0 6 3 1 5 -13 5 -14 0 -19 -2 -12 -5z"/>
<path d="M2136 3601 c-4 -7 -5 -15 -2 -18 9 -9 19 4 14 18 -4 11 -6 11 -12 0z"/>
<path d="M1920 3560 c0 -5 6 -10 14 -10 21 0 30 -20 16 -33 -7 -7 -10 -7 -7
-2 3 6 -11 10 -34 10 -21 1 -39 -3 -39 -8 0 -5 6 -7 14 -4 7 3 26 -1 40 -8 15
-8 44 -17 64 -21 34 -7 36 -6 23 9 -11 14 -11 20 -1 32 12 15 8 17 -25 15 -3
-1 -13 6 -21 15 -17 17 -44 20 -44 5z m74 -45 c-6 -16 -24 -21 -24 -7 0 11 11
22 21 22 5 0 6 -7 3 -15z"/>
<path d="M2040 3530 c0 -5 4 -10 9 -10 6 0 13 5 16 10 3 6 -1 10 -9 10 -9 0
-16 -4 -16 -10z"/>
<path d="M1790 3434 c-13 -15 -6 -17 24 -5 17 6 17 8 3 14 -8 3 -21 -1 -27 -9z"/>
<path d="M2157 3429 c7 -7 15 -10 18 -7 3 3 -2 9 -12 12 -14 6 -15 5 -6 -5z"/>
<path d="M1268 3360 c-16 -17 -28 -37 -28 -45 0 -8 -7 -15 -15 -15 -33 0 -76
-138 -101 -320 -24 -184 -49 -263 -68 -214 -3 8 -10 12 -16 9 -16 -10 -11 -22
11 -28 15 -4 20 -11 16 -21 -4 -9 -4 -16 -1 -16 7 0 48 94 69 160 30 96 106
294 124 326 16 27 61 138 61 149 0 3 -9 -3 -20 -12 -11 -10 -20 -22 -20 -28 0
-5 -20 -45 -45 -89 -26 -46 -39 -76 -30 -72 16 6 21 -14 6 -29 -5 -6 -18 -40
-31 -77 -12 -37 -25 -70 -29 -73 -11 -6 -6 53 7 95 5 19 10 42 10 50 1 45 78
209 119 252 15 15 23 28 17 28 -5 0 -21 -14 -36 -30z m-137 -453 c-10 -9 -11
-8 -5 6 3 10 9 15 12 12 3 -3 0 -11 -7 -18z"/>
<path d="M1845 3371 c-3 -5 -1 -12 5 -16 5 -3 10 1 10 9 0 18 -6 21 -15 7z"/>
<path d="M1565 3300 c-3 -5 -1 -10 4 -10 6 0 11 5 11 10 0 6 -2 10 -4 10 -3 0
-8 -4 -11 -10z"/>
<path d="M1134 3279 c-4 -7 -3 -9 4 -5 6 3 13 -2 15 -11 4 -16 5 -16 6 -1 1
21 -15 32 -25 17z"/>
<path d="M1415 3270 c-3 -5 -1 -10 4 -10 6 0 11 5 11 10 0 6 -2 10 -4 10 -3 0
-8 -4 -11 -10z"/>
<path d="M1320 3230 c-7 -22 -19 -45 -27 -51 -7 -7 -20 -36 -29 -67 -9 -31
-19 -50 -23 -43 -5 7 -14 -5 -24 -30 -9 -23 -14 -46 -11 -50 3 -5 0 -9 -6 -9
-7 0 -9 -7 -6 -16 3 -8 -2 -26 -10 -40 -9 -13 -14 -27 -10 -31 3 -3 6 -1 6 5
0 7 9 21 21 33 14 14 22 36 23 65 2 49 12 66 26 44 9 -13 10 -13 11 0 1 8 1
18 0 23 0 4 3 7 9 7 5 0 13 18 16 40 4 22 12 40 19 40 16 0 21 14 30 74 9 57
3 59 -15 6z"/>
<path d="M1554 3250 c0 -13 4 -16 10 -10 7 7 7 13 0 20 -6 6 -10 3 -10 -10z"/>
<path d="M1730 3260 c0 -12 82 -50 108 -50 11 0 24 5 27 10 4 6 -6 10 -22 10
-15 0 -47 9 -70 20 -24 10 -43 15 -43 10z"/>
<path d="M2153 3228 c-12 -24 -24 -54 -28 -68 l-6 -25 19 23 c21 28 55 112 43
112 -4 0 -17 -19 -28 -42z"/>
<path d="M1115 3250 c-3 -5 -1 -10 4 -10 6 0 11 5 11 10 0 6 -2 10 -4 10 -3 0
-8 -4 -11 -10z"/>
<path d="M1035 3230 c-3 -5 -1 -10 4 -10 6 0 11 5 11 10 0 6 -2 10 -4 10 -3 0
-8 -4 -11 -10z"/>
<path d="M2317 3223 c-4 -3 -7 -11 -7 -17 0 -6 5 -5 12 2 6 6 9 14 7 17 -3 3
-9 2 -12 -2z"/>
<path d="M1073 3163 c-42 -96 -64 -180 -61 -231 3 -37 5 -42 10 -22 4 14 10
51 13 82 5 46 9 55 19 45 8 -6 10 -18 6 -27 -9 -19 -39 -144 -35 -148 1 -2 19
43 38 100 19 57 45 129 57 162 11 32 19 63 18 68 -2 6 -16 -26 -32 -71 -25
-73 -46 -103 -46 -68 0 21 31 110 47 132 16 23 17 35 2 35 -5 0 -22 -26 -36
-57z"/>
<path d="M975 3200 c-3 -5 -1 -10 4 -10 6 0 11 5 11 10 0 6 -2 10 -4 10 -3 0
-8 -4 -11 -10z"/>
<path d="M1033 3186 c4 -10 1 -13 -8 -10 -20 8 -32 -23 -46 -120 -17 -119 0
-130 27 -16 11 49 16 86 11 83 -6 -4 -8 1 -4 11 4 10 7 20 7 22 0 2 5 4 11 4
5 0 7 -6 3 -12 -5 -9 -4 -10 3 -3 6 6 14 20 18 33 5 17 2 22 -10 22 -11 0 -15
-5 -12 -14z"/>
<path d="M1713 3177 c18 -35 46 -56 72 -56 20 0 20 0 0 11 -11 6 -22 14 -25
17 -3 3 -18 17 -33 31 l-28 25 14 -28z"/>
<path d="M2292 3170 c-7 -11 -8 -20 -3 -20 9 0 24 30 18 36 -1 2 -8 -6 -15
-16z"/>
<path d="M961 3154 c0 -11 3 -14 6 -6 3 7 2 16 -1 19 -3 4 -6 -2 -5 -13z"/>
<path d="M1302 3090 c0 -19 2 -27 5 -17 2 9 2 25 0 35 -3 9 -5 1 -5 -18z"/>
<path d="M1717 3083 c-3 -5 10 -16 29 -25 18 -9 34 -12 34 -7 0 4 -10 11 -22
15 -13 4 -26 11 -29 16 -4 6 -9 6 -12 1z"/>
<path d="M2210 3055 c-7 -9 -8 -15 -2 -15 5 0 12 7 16 15 3 8 4 15 2 15 -2 0
-9 -7 -16 -15z"/>
<path d="M1630 3030 c0 -5 5 -10 11 -10 5 0 7 5 4 10 -3 6 -8 10 -11 10 -2 0
-4 -4 -4 -10z"/>
<path d="M2120 2989 c-30 -22 -59 -45 -65 -50 -18 -18 79 40 110 66 48 40 15
28 -45 -16z"/>
<path d="M1086 2983 c-18 -67 -18 -68 -7 -57 15 14 32 74 21 74 -5 0 -11 -8
-14 -17z"/>
<path d="M955 2929 c11 -36 21 -42 19 -12 0 15 -6 29 -13 31 -10 3 -11 -2 -6
-19z"/>
<path d="M1950 2929 c-8 -5 -35 -18 -60 -29 -25 -11 -34 -17 -20 -14 22 6 23
5 11 -10 -7 -9 -18 -16 -23 -16 -50 0 -258 -143 -258 -177 0 -8 19 4 46 31 25
25 50 46 56 46 6 0 8 3 5 6 -10 10 65 48 91 46 26 -2 102 54 102 74 0 7 18 19
40 25 22 7 40 16 40 21 0 10 -11 9 -30 -3z"/>
<path d="M2050 2905 c-19 -14 -27 -25 -19 -25 9 0 26 11 39 25 13 14 21 25 19
25 -3 0 -20 -11 -39 -25z"/>
<path d="M937 2894 c-4 -4 -7 -17 -7 -28 1 -19 1 -20 11 -3 11 19 8 43 -4 31z"/>
<path d="M1181 2873 c-16 -17 -11 -25 8 -14 7 5 12 13 10 19 -2 6 -10 4 -18
-5z"/>
<path d="M1947 2865 c-10 -14 -15 -25 -12 -25 6 0 45 38 45 45 0 12 -17 2 -33
-20z"/>
<path d="M1808 2873 c7 -3 16 -2 19 1 4 3 -2 6 -13 5 -11 0 -14 -3 -6 -6z"/>
<path d="M990 2862 c0 -7 4 -12 9 -12 5 0 6 -15 1 -34 -4 -19 -4 -39 0 -46 4
-6 10 7 13 32 4 30 2 47 -9 58 -10 10 -14 11 -14 2z"/>
<path d="M1705 2860 c-3 -5 -1 -10 4 -10 6 0 11 5 11 10 0 6 -2 10 -4 10 -3 0
-8 -4 -11 -10z"/>
<path d="M1743 2863 c9 -2 25 -2 35 0 9 3 1 5 -18 5 -19 0 -27 -2 -17 -5z"/>
<path d="M2000 2855 c-7 -9 -11 -18 -8 -20 3 -3 11 1 18 10 7 9 11 18 8 20 -3
3 -11 -1 -18 -10z"/>
<path d="M1041 2844 c0 -11 3 -14 6 -6 3 7 2 16 -1 19 -3 4 -6 -2 -5 -13z"/>
<path d="M1186 2833 c-6 -14 -5 -15 5 -6 7 7 10 15 7 18 -3 3 -9 -2 -12 -12z"/>
<path d="M926 2824 c-9 -22 -7 -44 2 -44 5 0 9 14 9 30 0 34 -2 37 -11 14z"/>
<path d="M1660 2830 c-8 -5 -10 -10 -5 -10 6 0 17 5 25 10 8 5 11 10 5 10 -5
0 -17 -5 -25 -10z"/>
<path d="M2314 2818 c3 -10 -2 -24 -10 -33 -9 -8 -12 -15 -7 -15 4 0 -1 -7
-11 -15 -11 -8 -18 -17 -15 -19 7 -8 34 18 46 45 7 17 8 30 1 40 -8 11 -9 10
-4 -3z"/>
<path d="M1134 2807 c-6 -16 -1 -48 9 -64 10 -16 27 -17 27 -2 0 5 -4 8 -9 5
-12 -8 -22 37 -11 48 6 6 10 14 10 18 0 13 -20 9 -26 -5z"/>
<path d="M1555 2800 c-3 -6 1 -7 9 -4 18 7 21 14 7 14 -6 0 -13 -4 -16 -10z"/>
<path d="M1628 2803 c7 -3 16 -2 19 1 4 3 -2 6 -13 5 -11 0 -14 -3 -6 -6z"/>
<path d="M1948 2803 c6 -2 10 -9 6 -14 -3 -5 0 -9 5 -9 6 0 11 7 11 15 0 8 -8
15 -17 14 -11 0 -13 -3 -5 -6z"/>
<path d="M1787 2782 c-19 -20 -23 -37 -7 -27 10 6 33 45 27 45 -2 0 -11 -8
-20 -18z"/>
<path d="M1836 2766 c-14 -19 -26 -39 -26 -44 0 -6 -4 -12 -8 -14 -14 -5 -65
-78 -59 -84 3 -3 17 11 32 30 15 20 32 36 39 36 6 0 2 -7 -8 -15 -11 -8 -17
-17 -14 -20 8 -9 34 28 61 88 29 64 22 74 -17 23z"/>
<path d="M1165 2779 c-4 -6 -5 -12 -2 -15 2 -3 7 2 10 11 7 17 1 20 -8 4z"/>
<path d="M1945 2760 c3 -5 8 -10 11 -10 2 0 4 5 4 10 0 6 -5 10 -11 10 -5 0
-7 -4 -4 -10z"/>
<path d="M1190 2744 c0 -8 5 -12 10 -9 6 4 8 11 5 16 -9 14 -15 11 -15 -7z"/>
<path d="M1106 2721 c-3 -5 3 -11 13 -14 14 -3 18 -1 14 9 -6 16 -19 18 -27 5z"/>
<path d="M1876 2713 c-6 -14 -5 -15 5 -6 7 7 10 15 7 18 -3 3 -9 -2 -12 -12z"/>
<path d="M2187 2713 c-4 -3 -7 -11 -7 -17 0 -6 5 -5 12 2 6 6 9 14 7 17 -3 3
-9 2 -12 -2z"/>
<path d="M1147 2693 c-4 -3 -7 -11 -7 -17 0 -6 5 -5 12 2 6 6 9 14 7 17 -3 3
-9 2 -12 -2z"/>
<path d="M1570 2671 c0 -6 5 -13 10 -16 6 -3 10 1 10 9 0 9 -4 16 -10 16 -5 0
-10 -4 -10 -9z"/>
<path d="M2255 2660 c-3 -5 1 -10 9 -10 9 0 16 5 16 10 0 6 -4 10 -9 10 -6 0
-13 -4 -16 -10z"/>
<path d="M977 2653 c-4 -3 -7 -11 -7 -17 0 -6 5 -5 12 2 6 6 9 14 7 17 -3 3
-9 2 -12 -2z"/>
<path d="M1506 2645 c-11 -8 -16 -15 -10 -15 5 0 18 7 28 15 11 8 16 15 10 15
-5 0 -18 -7 -28 -15z"/>
<path d="M1550 2639 c0 -5 5 -7 10 -4 6 3 10 8 10 11 0 2 -4 4 -10 4 -5 0 -10
-5 -10 -11z"/>
<path d="M1072 2620 c0 -14 2 -19 5 -12 2 6 2 18 0 25 -3 6 -5 1 -5 -13z"/>
<path d="M1855 2620 c-3 -6 1 -7 9 -4 18 7 21 14 7 14 -6 0 -13 -4 -16 -10z"/>
<path d="M1293 2590 c1 -11 5 -20 9 -20 11 0 10 28 -1 35 -6 3 -9 -4 -8 -15z"/>
<path d="M2145 2550 c-3 -5 -1 -10 4 -10 6 0 11 5 11 10 0 6 -2 10 -4 10 -3 0
-8 -4 -11 -10z"/>
<path d="M1310 2535 c0 -8 4 -15 10 -15 5 0 7 7 4 15 -4 8 -8 15 -10 15 -2 0
-4 -7 -4 -15z"/>
<path d="M2325 2530 c-3 -5 1 -10 10 -10 9 0 13 5 10 10 -3 6 -8 10 -10 10 -2
0 -7 -4 -10 -10z"/>
<path d="M2240 2519 c0 -5 5 -7 10 -4 6 3 10 8 10 11 0 2 -4 4 -10 4 -5 0 -10
-5 -10 -11z"/>
<path d="M1116 2485 c-25 -19 -16 -19 20 0 16 8 22 15 14 15 -8 -1 -24 -7 -34
-15z"/>
<path d="M1766 2481 c-4 -5 -2 -12 3 -15 5 -4 12 -2 15 3 4 5 2 12 -3 15 -5 4
-12 2 -15 -3z"/>
<path d="M1380 2413 c0 -6 19 -34 43 -63 77 -94 88 -113 85 -145 -2 -16 -9
-30 -16 -30 -7 0 -16 -5 -20 -12 -4 -6 -31 -23 -60 -36 l-53 -25 36 -4 c19 -2
35 0 35 5 0 5 12 -1 26 -12 31 -24 52 -28 34 -6 -7 8 -19 15 -26 15 -8 0 -14
4 -14 9 0 4 11 6 25 3 15 -2 25 0 25 7 0 6 -3 10 -7 10 -30 -5 -15 21 20 34
11 4 17 17 17 37 0 28 3 31 23 24 12 -3 22 -7 22 -8 7 -30 43 -81 65 -94 16
-9 30 -25 30 -34 0 -9 5 -20 11 -24 8 -4 7 -9 -2 -16 -10 -7 -8 -8 9 -5 14 3
22 0 22 -8 0 -10 -7 -11 -27 -6 -16 5 -27 13 -26 19 1 5 -7 8 -17 5 -26 -7
-26 -23 0 -23 11 0 20 -5 20 -11 0 -6 7 -8 16 -5 9 3 25 -1 37 -9 31 -22 41
-18 23 7 -20 28 -20 38 -1 38 8 0 15 5 15 10 0 15 26 12 39 -4 7 -8 14 -23 16
-35 5 -29 15 -42 25 -36 5 3 24 -4 43 -15 28 -16 37 -18 43 -8 4 7 4 10 -1 6
-12 -11 -79 46 -100 85 -17 32 -78 67 -92 53 -4 -3 -1 -6 5 -6 16 0 15 -27 -1
-33 -8 -3 -20 -1 -28 4 -11 7 -12 12 -1 29 11 18 10 20 -9 20 -27 0 -92 64
-87 87 2 12 -11 25 -45 42 -44 23 -115 91 -159 152 -9 13 -17 19 -18 12z"/>
<path d="M1185 2368 c2 -21 45 -60 45 -40 0 5 -7 12 -15 16 -8 3 -15 12 -15
20 0 8 -4 17 -8 20 -5 3 -8 -5 -7 -16z"/>
<path d="M1360 2376 c0 -8 -15 -27 -34 -44 l-34 -30 36 -6 c21 -3 38 -1 40 4
2 5 11 6 19 3 15 -6 14 -7 -2 -13 -15 -5 -12 -10 19 -28 41 -24 42 -23 21 18
-16 30 -47 46 -66 34 -8 -5 -9 -3 -4 5 4 7 16 10 27 8 15 -4 18 -2 13 11 -4 9
-10 25 -12 35 -6 20 -23 23 -23 3z"/>
<path d="M1750 2317 c-13 -40 -25 -78 -28 -84 -9 -28 24 -11 35 17 7 18 21 32
36 35 24 6 24 8 11 33 -8 15 -14 35 -14 44 0 42 -19 21 -40 -45z m40 -7 c0 -5
-7 -10 -16 -10 -8 0 -12 5 -9 10 3 6 10 10 16 10 5 0 9 -4 9 -10z"/>
<path d="M1090 2358 c0 -4 14 -8 30 -8 17 0 30 2 30 4 0 2 -13 6 -30 8 -16 3
-30 1 -30 -4z"/>
<path d="M1096 2303 c7 -45 7 -45 27 -38 22 9 28 43 8 49 -9 3 -2 3 14 0 17
-3 46 -7 65 -10 27 -3 24 0 -15 11 -27 8 -62 17 -77 20 -27 5 -28 4 -22 -32z"/>
<path d="M1443 2294 c10 -12 17 -25 16 -30 -1 -5 -1 -18 0 -29 1 -17 3 -18 11
-5 8 12 10 12 10 1 0 -8 3 -12 6 -9 8 9 -21 62 -43 79 -17 13 -17 13 0 -7z"/>
<path d="M1520 2302 c0 -5 23 -21 50 -36 28 -15 50 -23 50 -17 0 5 -21 21 -46
35 -52 29 -54 30 -54 18z"/>
<path d="M1203 2266 c-15 -12 -38 -28 -50 -35 -13 -6 -23 -15 -23 -19 0 -14
105 -70 143 -77 46 -7 77 1 77 21 0 9 -5 12 -11 8 -6 -3 -15 0 -20 7 -7 11 -9
9 -10 -6 0 -20 0 -20 -9 0 -7 17 -9 17 -9 3 -1 -10 -6 -18 -12 -18 -7 0 -10
18 -9 48 3 62 1 87 -6 79 -3 -3 -7 -31 -9 -62 -3 -60 -14 -87 -16 -39 -1 17
-3 22 -6 12 -2 -10 -9 -18 -14 -18 -13 0 -11 13 7 39 24 34 3 47 -26 16 -13
-14 -28 -25 -34 -25 -14 0 44 59 66 66 10 3 18 10 18 15 0 15 -17 10 -47 -15z
m27 -33 c-1 -13 -40 -56 -45 -51 -3 3 4 17 16 31 21 27 29 33 29 20z"/>
<path d="M1150 2262 c-46 -21 -45 -21 -34 -31 5 -6 23 2 44 20 39 33 38 34
-10 11z"/>
<path d="M1280 2274 c0 -3 18 -28 39 -56 22 -27 41 -54 43 -60 9 -26 88 25 88
56 0 11 -120 66 -145 66 -14 0 -25 -3 -25 -6z m93 -31 c15 -7 27 -18 27 -24 0
-6 5 -7 10 -4 12 8 13 -5 1 -24 -5 -8 -14 -10 -21 -6 -9 5 -11 4 -6 -3 4 -7 4
-12 -1 -12 -4 1 -26 24 -47 52 -36 46 -37 50 -15 43 13 -4 36 -14 52 -22z"/>
<path d="M1803 2270 c-12 -5 -29 -22 -37 -39 -13 -25 -14 -30 -1 -35 8 -3 20
3 27 13 7 10 22 23 33 29 11 6 14 12 7 12 -7 0 -24 -11 -37 -25 -18 -17 -25
-20 -25 -9 0 8 13 23 30 32 16 9 30 20 30 25 0 8 1 8 -27 -3z"/>
<path d="M1850 2259 c0 -3 26 -9 57 -11 31 -3 59 -10 61 -16 2 -6 10 -8 18 -5
8 3 14 1 14 -5 0 -6 7 -9 15 -8 31 5 22 13 -32 30 -59 19 -133 27 -133 15z"/>
<path d="M1822 2214 c-28 -19 -31 -74 -4 -74 10 0 28 -7 40 -16 12 -8 22 -12
22 -7 0 4 -17 17 -37 29 -22 13 -32 24 -25 28 6 4 29 -9 50 -29 22 -19 44 -35
50 -35 6 0 12 -4 14 -8 2 -5 17 -12 33 -16 l30 -7 -30 19 c-37 23 -91 83 -100
111 -8 25 -14 26 -43 5z m45 -40 c-3 -3 -13 0 -21 9 -8 8 -12 18 -9 21 4 4 14
0 22 -9 8 -8 12 -17 8 -21z"/>
<path d="M1630 2208 c0 -8 7 -21 15 -28 19 -16 19 -1 0 24 -12 16 -15 17 -15
4z"/>
<path d="M1460 2198 c0 -6 -8 -21 -17 -32 -17 -20 -17 -20 0 -7 24 19 41 51
27 51 -5 0 -10 -5 -10 -12z"/>
<path d="M1924 2161 c30 -31 59 -51 78 -53 35 -6 41 1 22 27 -14 19 -14 19
-14 -1 -1 -18 -1 -18 -11 -1 -6 10 -8 29 -5 41 5 20 1 24 -25 30 -17 3 -45 6
-62 6 l-31 0 48 -49z m31 -9 c-8 -9 -25 20 -18 31 3 5 10 2 15 -7 6 -10 7 -20
3 -24z m30 2 c0 -38 -11 -36 -17 4 -2 16 1 29 6 29 6 0 11 -15 11 -33z"/>
<path d="M2108 2203 c7 -3 16 -2 19 1 4 3 -2 6 -13 5 -11 0 -14 -3 -6 -6z"/>
<path d="M2154 2195 c8 -8 21 -15 28 -15 8 1 6 6 -6 15 -26 20 -42 19 -22 0z"/>
<path d="M1680 2190 c18 -12 30 -13 30 -2 0 4 -10 9 -22 9 -18 2 -20 0 -8 -7z"/>
<path d="M1730 2194 c0 -17 18 -36 30 -32 7 2 4 10 -9 22 -12 11 -21 15 -21
10z"/>
<path d="M2010 2180 c0 -5 7 -10 15 -10 8 0 15 5 15 10 0 6 -7 10 -15 10 -8 0
-15 -4 -15 -10z"/>
<path d="M2041 2168 c-9 -14 -8 -18 4 -18 9 0 12 -6 8 -17 -4 -11 -3 -14 5 -9
7 4 12 13 12 21 0 7 7 16 16 19 26 10 29 7 8 -9 -25 -19 -11 -19 27 1 38 19
32 26 -25 28 -32 1 -47 -3 -55 -16z"/>
<path d="M1670 2158 c0 -4 14 -8 32 -8 17 0 28 3 24 8 -10 10 -56 10 -56 0z"/>
<path d="M2191 2165 c1 -19 18 -51 18 -35 0 8 -4 22 -9 30 -5 8 -9 11 -9 5z"/>
<path d="M2108 2131 c-32 -14 -58 -32 -58 -39 0 -7 18 -32 41 -55 23 -23 48
-55 56 -72 l16 -30 -22 19 c-21 19 -21 19 -15 1 5 -13 4 -16 -5 -11 -8 6 -7
-2 3 -22 15 -29 15 -31 -4 -29 -11 1 -20 7 -20 15 0 7 -5 10 -12 6 -8 -5 -9
-2 -5 10 4 10 7 24 7 32 0 9 5 12 12 8 7 -4 8 -3 4 4 -4 7 -2 12 4 12 6 0 8 5
5 11 -5 6 -12 4 -21 -8 -13 -17 -13 -17 -14 4 0 27 -20 73 -32 73 -11 0 -11
-1 13 -54 14 -32 18 -57 14 -76 -4 -20 -3 -30 5 -30 7 0 10 -8 7 -20 -12 -44
58 -14 77 33 14 35 21 216 9 233 -6 7 -27 2 -65 -15z m52 -26 c0 -9 -10 -15
-27 -16 -27 -1 -27 -1 5 -10 17 -5 32 -14 32 -20 0 -6 -9 -5 -22 2 -22 11 -22
11 -7 -7 25 -30 34 -48 19 -39 -9 5 -10 1 -6 -16 l7 -24 -18 25 c-10 14 -34
43 -53 64 -31 35 -32 39 -12 34 12 -4 22 -2 22 2 0 5 12 11 28 13 15 2 28 5
30 6 1 0 2 -6 2 -14z m-10 -186 c0 -6 -4 -7 -10 -4 -5 3 -10 11 -10 16 0 6 5
7 10 4 6 -3 10 -11 10 -16z"/>
<path d="M2135 2030 c3 -5 8 -10 11 -10 2 0 4 5 4 10 0 6 -5 10 -11 10 -5 0
-7 -4 -4 -10z"/>
<path d="M1736 2141 c-6 -9 35 -24 43 -15 6 5 -18 24 -31 24 -4 0 -9 -4 -12
-9z"/>
<path d="M1210 2130 c8 -5 20 -10 25 -10 6 0 3 5 -5 10 -8 5 -19 10 -25 10 -5
0 -3 -5 5 -10z"/>
<path d="M1810 2120 c0 -5 5 -10 11 -10 5 0 7 5 4 10 -3 6 -8 10 -11 10 -2 0
-4 -4 -4 -10z"/>
<path d="M1260 2090 c30 -10 56 -17 58 -15 7 7 -33 22 -73 28 -36 6 -35 5 15
-13z"/>
<path d="M1840 2101 c0 -5 11 -16 25 -25 14 -9 25 -12 25 -7 0 5 -11 16 -25
25 -14 9 -25 12 -25 7z"/>
<path d="M1905 2089 c-4 -6 -5 -12 -2 -15 2 -3 7 2 10 11 7 17 1 20 -8 4z"/>
<path d="M1510 2081 c0 -7 14 -18 31 -25 21 -9 27 -15 18 -19 -9 -3 -9 -6 -2
-6 6 -1 14 3 18 9 3 5 13 6 22 3 11 -4 14 -3 9 5 -4 7 -15 12 -25 12 -9 0 -22
5 -29 12 -7 7 -12 8 -12 4 0 -5 -7 -3 -15 4 -11 9 -15 9 -15 1z"/>
<path d="M1368 2073 c7 -3 16 -2 19 1 4 3 -2 6 -13 5 -11 0 -14 -3 -6 -6z"/>
<path d="M1418 2063 c6 -2 18 -2 25 0 6 3 1 5 -13 5 -14 0 -19 -2 -12 -5z"/>
<path d="M1843 2050 c7 -11 31 -33 53 -49 21 -15 55 -44 74 -62 19 -19 49 -45
67 -57 l32 -23 -2 45 c-2 46 -12 49 -20 6 -3 -16 -5 -10 -7 20 l-3 45 -8 -35
c-6 -25 -7 -13 -3 38 5 84 -8 94 -47 37 -25 -36 -43 -47 -33 -20 5 11 2 13
-10 9 -9 -4 -16 -1 -16 6 0 7 8 10 20 7 10 -3 24 1 31 9 10 12 2 14 -44 14
-36 0 -59 5 -67 15 -19 22 -33 18 -17 -5z m156 -114 c-9 -8 -10 -2 -5 29 3 22
7 47 8 55 1 8 3 -5 5 -29 3 -26 -1 -48 -8 -55z m-18 37 c-10 -17 -10 -16 -11
3 0 23 13 41 18 25 2 -6 -1 -18 -7 -28z"/>
<path d="M1480 2050 c0 -6 7 -10 15 -10 8 0 15 2 15 4 0 2 -7 6 -15 10 -8 3
-15 1 -15 -4z"/>
<path d="M1760 2011 c30 -24 42 -27 34 -6 -4 8 -10 15 -14 15 -5 0 -17 3 -27
6 -13 4 -11 0 7 -15z"/>
<path d="M1598 1993 c7 -3 16 -2 19 1 4 3 -2 6 -13 5 -11 0 -14 -3 -6 -6z"/>
<path d="M1685 1990 c-3 -5 1 -10 10 -10 9 0 13 5 10 10 -3 6 -8 10 -10 10 -2
0 -7 -4 -10 -10z"/>
<path d="M1773 1973 c9 -14 47 -24 47 -12 0 5 -4 9 -9 9 -5 0 -17 3 -27 7 -11
4 -15 3 -11 -4z"/>
<path d="M1910 1923 c0 -10 61 -45 67 -39 4 4 -51 46 -61 46 -3 0 -6 -3 -6 -7z"/>
<path d="M857 1893 c-4 -3 -7 -11 -7 -17 0 -6 5 -5 12 2 6 6 9 14 7 17 -3 3
-9 2 -12 -2z"/>
<path d="M868 1872 c-31 -19 -36 -32 -13 -32 8 0 18 -1 22 -2 4 -2 10 9 14 25
4 15 7 27 6 26 -1 0 -14 -8 -29 -17z"/>
</g>
</svg>
